<svg width="30" height="30" viewBox="0 0 30 30" fill="none" xmlns="http://www.w3.org/2000/svg">
<g clip-path="url(#clip0)">
<path d="M0.529888 14.4644L7.44249 17.0444L10.1181 25.6491C10.2893 26.2002 10.9632 26.4039 11.4105 26.0382L15.2637 22.897C15.6676 22.5679 16.2429 22.5515 16.665 22.8579L23.6148 27.9036C24.0933 28.2514 24.7712 27.9892 24.8912 27.411L29.9823 2.92189C30.1133 2.29029 29.4927 1.76339 28.8913 1.99599L0.521789 12.9401C-0.178311 13.2101 -0.172212 14.2013 0.529888 14.4644ZM9.68689 15.671L23.1967 7.35029C23.4395 7.20119 23.6893 7.52949 23.4808 7.72289L12.3313 18.0869C11.9394 18.4517 11.6866 18.9399 11.615 19.4698L11.2352 22.2844C11.1849 22.6602 10.657 22.6975 10.5533 22.3338L9.09259 17.2013C8.92529 16.6159 9.16909 15.9906 9.68689 15.671Z" fill="#808080"/>
</g>
<defs>
<clipPath id="clip0">
<rect width="30" height="30" fill="white"/>
</clipPath>
</defs>
</svg>
