<svg width="270" height="97" viewBox="0 0 270 97" fill="none" xmlns="http://www.w3.org/2000/svg">
<path d="M63.24 60.6H63.44V61H57.8V60.6H58C58.1867 60.6 58.36 60.52 58.52 60.36C58.68 60.2 58.8133 60.0133 58.92 59.8C59.0533 59.5867 59.1467 59.36 59.2 59.12C59.2533 58.8533 59.28 58.6133 59.28 58.4V37.08C59.28 36.8933 59.2533 36.68 59.2 36.44C59.1467 36.2 59.0533 35.9733 58.92 35.76C58.8133 35.5467 58.68 35.3733 58.52 35.24C58.36 35.08 58.1867 35 58 35H57.8V34.6H64.76C67.4267 34.6 69.48 35.12 70.92 36.16C72.3867 37.2 73.12 38.7333 73.12 40.76C73.12 41.7733 72.9467 42.6667 72.6 43.44C72.28 44.1867 71.84 44.84 71.28 45.4C70.72 45.9333 70.0533 46.3733 69.28 46.72C68.5333 47.04 67.7333 47.28 66.88 47.44L69.76 51.84C70.4533 52.9067 71.16 53.96 71.88 55C72.6 56.0133 73.3067 57.0667 74 58.16C74.1867 58.4267 74.3867 58.7067 74.6 59C74.84 59.2933 75.08 59.56 75.32 59.8C75.5867 60.04 75.8533 60.24 76.12 60.4C76.4133 60.5333 76.7067 60.6 77 60.6V61H75.28C74.2133 61 73.3333 60.7467 72.64 60.24C71.9733 59.7067 71.4133 59.0933 70.96 58.4C69.76 56.64 68.56 54.8533 67.36 53.04C66.1867 51.2267 65.0133 49.44 63.84 47.68C63.5467 47.6533 63.2267 47.6267 62.88 47.6C62.56 47.5467 62.2533 47.4933 61.96 47.44V58.4C61.96 58.6133 61.9867 58.8533 62.04 59.12C62.0933 59.36 62.1733 59.5867 62.28 59.8C62.4133 60.0133 62.5467 60.2 62.68 60.36C62.84 60.52 63.0267 60.6 63.24 60.6ZM61.96 35.96V46.12H62.16C62.3733 46.1467 62.7067 46.1733 63.16 46.2C63.64 46.2 64.2267 46.2 64.92 46.2C65.48 46.2 66.0667 46.12 66.68 45.96C67.32 45.7733 67.9067 45.48 68.44 45.08C69 44.6533 69.4533 44.1067 69.8 43.44C70.1733 42.7733 70.36 41.9333 70.36 40.92C70.36 39.9067 70.16 39.08 69.76 38.44C69.3867 37.8 68.8533 37.2933 68.16 36.92C67.4933 36.5467 66.68 36.2933 65.72 36.16C64.76 36.0267 63.7067 35.96 62.56 35.96H61.96ZM88.9459 61V58.96L88.7459 59.16C88.0793 59.8267 87.3059 60.3467 86.4259 60.72C85.5726 61.0933 84.5326 61.28 83.3059 61.28C82.3726 61.28 81.5726 61.1733 80.9059 60.96C80.2393 60.7467 79.6926 60.4533 79.2659 60.08C78.8393 59.68 78.5193 59.2267 78.3059 58.72C78.1193 58.2133 78.0259 57.68 78.0259 57.12C78.0259 56.2133 78.2659 55.4133 78.7459 54.72C79.2526 54.0267 79.9726 53.4133 80.9059 52.88C81.8393 52.3467 82.9726 51.8667 84.3059 51.44C85.6659 50.9867 87.2126 50.5467 88.9459 50.12C88.8926 49.08 88.6793 48.24 88.3059 47.6C87.9326 46.96 87.4926 46.4667 86.9859 46.12C86.4793 45.7467 85.9459 45.5067 85.3859 45.4C84.8259 45.2667 84.3459 45.2 83.9459 45.2C83.2526 45.2 82.6393 45.3067 82.1059 45.52C81.5993 45.7333 81.1459 46.0133 80.7459 46.36C80.3726 46.68 80.0526 47.04 79.7859 47.44C79.5193 47.8133 79.3059 48.1733 79.1459 48.52H78.7859V45.6C78.9993 45.5733 79.1993 45.5067 79.3859 45.4C79.5726 45.2933 79.7993 45.1867 80.0659 45.08C80.4659 44.92 81.0126 44.6933 81.7059 44.4C82.3993 44.08 83.3726 43.92 84.6259 43.92C86.0926 43.92 87.2793 44.1067 88.1859 44.48C89.0926 44.8533 89.7859 45.3467 90.2659 45.96C90.7726 46.5733 91.1059 47.28 91.2659 48.08C91.4259 48.8533 91.5059 49.6533 91.5059 50.48V58.4C91.5059 58.9333 91.6259 59.44 91.8659 59.92C92.1059 60.3733 92.4259 60.6 92.8259 60.6V61H88.9459ZM88.9459 57.2V51.48L88.5459 51.56C87.9059 51.72 87.1193 51.9333 86.1859 52.2C85.2793 52.4667 84.4126 52.8133 83.5859 53.24C82.7593 53.6667 82.0526 54.1733 81.4659 54.76C80.8793 55.3467 80.5859 56.0267 80.5859 56.8C80.5859 57.6533 80.9326 58.36 81.6259 58.92C82.3193 59.48 83.2259 59.76 84.3459 59.76C85.2259 59.76 85.9993 59.5733 86.6659 59.2C87.3326 58.8 87.9459 58.2933 88.5059 57.68L88.9459 57.2ZM122.267 58.4C122.267 58.6133 122.294 58.8533 122.347 59.12C122.401 59.36 122.481 59.5867 122.587 59.8C122.694 60.0133 122.814 60.2 122.947 60.36C123.107 60.52 123.294 60.6 123.507 60.6V61H118.307V60.6C118.521 60.6 118.707 60.52 118.867 60.36C119.027 60.2 119.161 60.0133 119.267 59.8C119.401 59.5867 119.494 59.36 119.547 59.12C119.601 58.8533 119.627 58.6133 119.627 58.4V49.76C119.627 49.1467 119.534 48.56 119.347 48C119.187 47.44 118.934 46.96 118.587 46.56C118.241 46.1333 117.814 45.8 117.307 45.56C116.801 45.2933 116.227 45.16 115.587 45.16C114.867 45.16 114.241 45.3333 113.707 45.68C113.201 46 112.774 46.4 112.427 46.88C112.107 47.36 111.867 47.8533 111.707 48.36C111.547 48.84 111.467 49.24 111.467 49.56V58.4C111.467 58.6133 111.494 58.8533 111.547 59.12C111.601 59.36 111.681 59.5867 111.787 59.8C111.921 60.0133 112.054 60.2 112.187 60.36C112.347 60.52 112.534 60.6 112.747 60.6V61H107.587V60.6C107.774 60.6 107.947 60.52 108.107 60.36C108.267 60.2 108.401 60.0133 108.507 59.8C108.641 59.5867 108.734 59.36 108.787 59.12C108.841 58.8533 108.867 58.6133 108.867 58.4V49.52C108.867 48.88 108.747 48.2933 108.507 47.76C108.294 47.2 107.987 46.7333 107.587 46.36C107.214 45.9867 106.774 45.6933 106.267 45.48C105.787 45.2667 105.294 45.16 104.787 45.16C104.094 45.16 103.481 45.2933 102.947 45.56C102.441 45.8267 102.014 46.16 101.667 46.56C101.347 46.96 101.094 47.4 100.907 47.88C100.747 48.3333 100.667 48.7733 100.667 49.2V58.4C100.667 58.6133 100.694 58.8533 100.747 59.12C100.801 59.36 100.881 59.5867 100.987 59.8C101.121 60.0133 101.254 60.2 101.387 60.36C101.547 60.52 101.734 60.6 101.947 60.6V61H96.7872V60.6C96.9739 60.6 97.1472 60.52 97.3072 60.36C97.4672 60.2 97.6005 60.0133 97.7072 59.8C97.8405 59.5867 97.9339 59.36 97.9872 59.12C98.0405 58.8533 98.0672 58.6133 98.0672 58.4V47.72C98.0672 47.5067 98.0539 47.2667 98.0272 47C98.0005 46.7333 97.9472 46.48 97.8672 46.24C97.7872 46 97.6539 45.8 97.4672 45.64C97.2805 45.48 97.0272 45.4 96.7072 45.4V45.04L100.667 43.72V45.76C101.067 45.3067 101.614 44.8667 102.307 44.44C103.027 44.0133 103.961 43.8 105.107 43.8C105.854 43.8 106.521 43.9067 107.107 44.12C107.694 44.3333 108.201 44.6133 108.627 44.96C109.081 45.28 109.467 45.6533 109.787 46.08C110.107 46.5067 110.374 46.92 110.587 47.32C110.801 46.92 111.054 46.52 111.347 46.12C111.641 45.6933 111.987 45.3067 112.387 44.96C112.814 44.6133 113.307 44.3333 113.867 44.12C114.454 43.9067 115.134 43.8 115.907 43.8C117.401 43.8 118.574 44.0667 119.427 44.6C120.281 45.1333 120.907 45.7733 121.307 46.52C121.734 47.2667 122.001 48.0533 122.107 48.88C122.214 49.68 122.267 50.36 122.267 50.92V58.4ZM136.005 61.28C134.671 61.28 133.471 61.0667 132.405 60.64C131.338 60.1867 130.418 59.5867 129.645 58.84C128.898 58.0667 128.311 57.16 127.885 56.12C127.485 55.08 127.285 53.9467 127.285 52.72C127.285 51.4133 127.511 50.2267 127.965 49.16C128.418 48.0667 129.045 47.1333 129.845 46.36C130.645 45.5867 131.591 44.9867 132.685 44.56C133.778 44.1333 134.965 43.92 136.245 43.92C137.525 43.92 138.698 44.1333 139.765 44.56C140.831 44.96 141.751 45.5333 142.525 46.28C143.298 47.0267 143.898 47.92 144.325 48.96C144.751 49.9733 144.965 51.0933 144.965 52.32C144.965 53.4667 144.765 54.5867 144.365 55.68C143.991 56.7467 143.418 57.6933 142.645 58.52C141.898 59.3467 140.965 60.0133 139.845 60.52C138.751 61.0267 137.471 61.28 136.005 61.28ZM135.765 45.24C134.805 45.2933 133.951 45.5333 133.205 45.96C132.485 46.36 131.871 46.8933 131.365 47.56C130.885 48.2 130.511 48.9333 130.245 49.76C130.005 50.5867 129.885 51.4267 129.885 52.28C129.885 53.2667 130.031 54.2267 130.325 55.16C130.645 56.0667 131.085 56.88 131.645 57.6C132.231 58.32 132.925 58.8933 133.725 59.32C134.525 59.7467 135.418 59.96 136.405 59.96C137.391 59.96 138.258 59.7467 139.005 59.32C139.778 58.8933 140.418 58.3467 140.925 57.68C141.431 56.9867 141.805 56.2133 142.045 55.36C142.311 54.5067 142.445 53.6533 142.445 52.8C142.445 51.92 142.311 51.04 142.045 50.16C141.778 49.2533 141.365 48.44 140.805 47.72C140.245 46.9733 139.538 46.3733 138.685 45.92C137.858 45.4667 136.885 45.24 135.765 45.24ZM164.622 58.4C164.622 58.6133 164.649 58.8533 164.702 59.12C164.756 59.36 164.836 59.5867 164.942 59.8C165.076 60.0133 165.209 60.2 165.342 60.36C165.502 60.52 165.689 60.6 165.902 60.6V61H160.742V60.6C160.929 60.6 161.102 60.52 161.262 60.36C161.422 60.2 161.556 60.0133 161.662 59.8C161.796 59.5867 161.889 59.36 161.942 59.12C161.996 58.8533 162.022 58.6133 162.022 58.4V50.96C162.022 50 161.889 49.16 161.622 48.44C161.356 47.72 160.996 47.12 160.542 46.64C160.089 46.16 159.569 45.8133 158.982 45.6C158.422 45.36 157.849 45.24 157.262 45.24C156.676 45.24 156.089 45.36 155.502 45.6C154.942 45.84 154.436 46.16 153.982 46.56C153.556 46.9333 153.196 47.3867 152.902 47.92C152.636 48.4267 152.502 48.96 152.502 49.52V58.4C152.502 58.6133 152.529 58.8533 152.582 59.12C152.636 59.36 152.716 59.5867 152.822 59.8C152.956 60.0133 153.089 60.2 153.222 60.36C153.382 60.52 153.569 60.6 153.782 60.6V61H148.582V60.6C148.769 60.6 148.942 60.52 149.102 60.36C149.262 60.2 149.396 60.0133 149.502 59.8C149.636 59.5867 149.729 59.36 149.782 59.12C149.836 58.8533 149.862 58.6133 149.862 58.4V47.36C149.862 46.9067 149.796 46.48 149.662 46.08C149.529 45.6533 149.142 45.4267 148.502 45.4V45.04L152.502 43.76V45.96C152.689 45.7467 152.929 45.52 153.222 45.28C153.516 45.0133 153.862 44.7733 154.262 44.56C154.689 44.32 155.169 44.1333 155.702 44C156.262 43.84 156.916 43.76 157.662 43.76C158.916 43.76 159.982 43.9733 160.862 44.4C161.742 44.8267 162.462 45.3867 163.022 46.08C163.582 46.7467 163.982 47.4933 164.222 48.32C164.489 49.12 164.622 49.9067 164.622 50.68V58.4ZM172.031 52.92C172.138 53.8533 172.365 54.7467 172.711 55.6C173.058 56.4267 173.511 57.16 174.071 57.8C174.658 58.44 175.365 58.96 176.191 59.36C177.018 59.7333 177.978 59.92 179.071 59.92C179.658 59.92 180.271 59.84 180.911 59.68C181.578 59.4933 182.191 59.24 182.751 58.92C183.311 58.6 183.805 58.2133 184.231 57.76C184.685 57.28 184.991 56.7467 185.151 56.16H185.511V59.16C185.351 59.16 185.165 59.2133 184.951 59.32C184.765 59.4267 184.538 59.56 184.271 59.72C183.738 60.04 183.018 60.3867 182.111 60.76C181.205 61.1067 180.005 61.28 178.511 61.28C177.311 61.28 176.165 61.1067 175.071 60.76C174.005 60.4133 173.058 59.88 172.231 59.16C171.405 58.44 170.738 57.52 170.231 56.4C169.751 55.28 169.511 53.9467 169.511 52.4C169.511 51.4133 169.671 50.4133 169.991 49.4C170.338 48.3867 170.845 47.48 171.511 46.68C172.205 45.8533 173.085 45.1867 174.151 44.68C175.218 44.1733 176.498 43.92 177.991 43.92C179.325 43.92 180.485 44.1467 181.471 44.6C182.485 45.0533 183.311 45.68 183.951 46.48C184.618 47.28 185.111 48.2267 185.431 49.32C185.751 50.4133 185.911 51.6133 185.911 52.92H172.031ZM177.831 45.24C176.898 45.24 176.085 45.4267 175.391 45.8C174.725 46.1733 174.151 46.6533 173.671 47.24C173.191 47.8267 172.818 48.4933 172.551 49.24C172.285 49.9867 172.111 50.7333 172.031 51.48H183.431C183.405 50.7067 183.258 49.9467 182.991 49.2C182.751 48.4533 182.405 47.7867 181.951 47.2C181.498 46.6133 180.925 46.1467 180.231 45.8C179.538 45.4267 178.738 45.24 177.831 45.24Z" fill="white"/>
<path d="M202.245 56.44C202.245 57.1333 202.072 57.7733 201.725 58.36C201.379 58.9467 200.899 59.4667 200.285 59.92C199.699 60.3467 199.005 60.6933 198.205 60.96C197.405 61.2 196.539 61.32 195.605 61.32C194.459 61.32 193.525 61.1733 192.805 60.88C192.085 60.56 191.472 60.24 190.965 59.92C190.619 59.7067 190.299 59.5333 190.005 59.4C189.712 59.24 189.392 59.16 189.045 59.16V56.12H189.445C189.525 56.4933 189.752 56.9067 190.125 57.36C190.525 57.7867 190.992 58.1867 191.525 58.56C192.085 58.9333 192.685 59.2533 193.325 59.52C193.992 59.76 194.659 59.88 195.325 59.88C195.805 59.88 196.299 59.8267 196.805 59.72C197.312 59.6133 197.765 59.44 198.165 59.2C198.592 58.96 198.939 58.6667 199.205 58.32C199.499 57.9467 199.645 57.5067 199.645 57C199.645 56.4933 199.499 56.0533 199.205 55.68C198.912 55.3067 198.539 54.9867 198.085 54.72C197.632 54.4267 197.112 54.1733 196.525 53.96C195.939 53.7467 195.352 53.5467 194.765 53.36C194.072 53.1467 193.365 52.9067 192.645 52.64C191.952 52.3733 191.325 52.0667 190.765 51.72C190.205 51.3467 189.752 50.9067 189.405 50.4C189.059 49.8667 188.885 49.24 188.885 48.52C188.885 47.9067 188.992 47.32 189.205 46.76C189.445 46.2 189.819 45.72 190.325 45.32C190.859 44.8933 191.539 44.56 192.365 44.32C193.192 44.0533 194.192 43.92 195.365 43.92C196.405 43.92 197.205 44.0133 197.765 44.2C198.352 44.36 198.832 44.5333 199.205 44.72C199.445 44.8533 199.685 44.96 199.925 45.04C200.165 45.0933 200.432 45.12 200.725 45.12V47.92H200.405C199.925 47.04 199.192 46.3733 198.205 45.92C197.219 45.4667 196.205 45.24 195.165 45.24C194.499 45.24 193.925 45.3333 193.445 45.52C192.965 45.68 192.565 45.8933 192.245 46.16C191.952 46.4 191.725 46.68 191.565 47C191.432 47.32 191.365 47.64 191.365 47.96C191.365 48.4133 191.485 48.8 191.725 49.12C191.992 49.44 192.339 49.72 192.765 49.96C193.219 50.2 193.712 50.4267 194.245 50.64C194.805 50.8533 195.392 51.0533 196.005 51.24C196.752 51.48 197.499 51.7467 198.245 52.04C198.992 52.3067 199.659 52.64 200.245 53.04C200.832 53.44 201.312 53.92 201.685 54.48C202.059 55.0133 202.245 55.6667 202.245 56.44ZM209.611 45.56V55.2C209.611 55.8933 209.624 56.52 209.651 57.08C209.677 57.64 209.744 58.1067 209.851 58.48C209.957 58.8533 210.117 59.1467 210.331 59.36C210.544 59.5467 210.837 59.64 211.211 59.64C211.771 59.64 212.291 59.3733 212.771 58.84C213.277 58.3067 213.597 57.6667 213.731 56.92H214.091V59.84C213.851 59.84 213.651 59.92 213.491 60.08C213.277 60.2667 212.971 60.4667 212.571 60.68C212.197 60.8933 211.624 61 210.851 61C209.891 61 209.144 60.8133 208.611 60.44C208.077 60.0667 207.691 59.5733 207.451 58.96C207.211 58.3467 207.064 57.6667 207.011 56.92C206.984 56.1733 206.971 55.4133 206.971 54.64V45.56H204.731V44.2H206.971V40.64C206.971 40.1867 206.904 39.7733 206.771 39.4C206.664 39 206.277 38.7867 205.611 38.76V38.36L209.611 37.08V44.2H214.091V45.56H209.611ZM225.497 61.28C224.164 61.28 222.964 61.0667 221.897 60.64C220.83 60.1867 219.91 59.5867 219.137 58.84C218.39 58.0667 217.804 57.16 217.377 56.12C216.977 55.08 216.777 53.9467 216.777 52.72C216.777 51.4133 217.004 50.2267 217.457 49.16C217.91 48.0667 218.537 47.1333 219.337 46.36C220.137 45.5867 221.084 44.9867 222.177 44.56C223.27 44.1333 224.457 43.92 225.737 43.92C227.017 43.92 228.19 44.1333 229.257 44.56C230.324 44.96 231.244 45.5333 232.017 46.28C232.79 47.0267 233.39 47.92 233.817 48.96C234.244 49.9733 234.457 51.0933 234.457 52.32C234.457 53.4667 234.257 54.5867 233.857 55.68C233.484 56.7467 232.91 57.6933 232.137 58.52C231.39 59.3467 230.457 60.0133 229.337 60.52C228.244 61.0267 226.964 61.28 225.497 61.28ZM225.257 45.24C224.297 45.2933 223.444 45.5333 222.697 45.96C221.977 46.36 221.364 46.8933 220.857 47.56C220.377 48.2 220.004 48.9333 219.737 49.76C219.497 50.5867 219.377 51.4267 219.377 52.28C219.377 53.2667 219.524 54.2267 219.817 55.16C220.137 56.0667 220.577 56.88 221.137 57.6C221.724 58.32 222.417 58.8933 223.217 59.32C224.017 59.7467 224.91 59.96 225.897 59.96C226.884 59.96 227.75 59.7467 228.497 59.32C229.27 58.8933 229.91 58.3467 230.417 57.68C230.924 56.9867 231.297 56.2133 231.537 55.36C231.804 54.5067 231.937 53.6533 231.937 52.8C231.937 51.92 231.804 51.04 231.537 50.16C231.27 49.2533 230.857 48.44 230.297 47.72C229.737 46.9733 229.03 46.3733 228.177 45.92C227.35 45.4667 226.377 45.24 225.257 45.24ZM247.794 47.12C247.474 46.5867 247.141 46.2533 246.794 46.12C246.448 45.9867 246.048 45.92 245.594 45.92C245.301 45.92 244.981 45.9867 244.634 46.12C244.314 46.2533 243.994 46.4267 243.674 46.64C243.354 46.8533 243.034 47.0933 242.714 47.36C242.421 47.6 242.168 47.8267 241.954 48.04V58.44C241.954 58.6533 241.981 58.88 242.034 59.12C242.088 59.36 242.168 59.6 242.274 59.84C242.408 60.0533 242.541 60.24 242.674 60.4C242.834 60.5333 243.021 60.6 243.234 60.6V61H238.034V60.6C238.221 60.6 238.394 60.5333 238.554 60.4C238.714 60.24 238.848 60.0533 238.954 59.84C239.088 59.6 239.181 59.36 239.234 59.12C239.288 58.88 239.314 58.6533 239.314 58.44V47.28C239.314 46.9067 239.194 46.5333 238.954 46.16C238.714 45.7867 238.368 45.5467 237.914 45.44V45.12L241.954 43.92V46.32C242.194 46.0267 242.448 45.7467 242.714 45.48C242.981 45.1867 243.274 44.9333 243.594 44.72C243.941 44.48 244.314 44.2933 244.714 44.16C245.114 44 245.581 43.92 246.114 43.92C246.488 43.92 246.968 44 247.554 44.16C248.141 44.32 248.621 44.4933 248.994 44.68L247.794 47.12ZM253.711 52.92C253.818 53.8533 254.044 54.7467 254.391 55.6C254.738 56.4267 255.191 57.16 255.751 57.8C256.338 58.44 257.044 58.96 257.871 59.36C258.698 59.7333 259.658 59.92 260.751 59.92C261.338 59.92 261.951 59.84 262.591 59.68C263.258 59.4933 263.871 59.24 264.431 58.92C264.991 58.6 265.484 58.2133 265.911 57.76C266.364 57.28 266.671 56.7467 266.831 56.16H267.191V59.16C267.031 59.16 266.844 59.2133 266.631 59.32C266.444 59.4267 266.218 59.56 265.951 59.72C265.418 60.04 264.698 60.3867 263.791 60.76C262.884 61.1067 261.684 61.28 260.191 61.28C258.991 61.28 257.844 61.1067 256.751 60.76C255.684 60.4133 254.738 59.88 253.911 59.16C253.084 58.44 252.418 57.52 251.911 56.4C251.431 55.28 251.191 53.9467 251.191 52.4C251.191 51.4133 251.351 50.4133 251.671 49.4C252.018 48.3867 252.524 47.48 253.191 46.68C253.884 45.8533 254.764 45.1867 255.831 44.68C256.898 44.1733 258.178 43.92 259.671 43.92C261.004 43.92 262.164 44.1467 263.151 44.6C264.164 45.0533 264.991 45.68 265.631 46.48C266.298 47.28 266.791 48.2267 267.111 49.32C267.431 50.4133 267.591 51.6133 267.591 52.92H253.711ZM259.511 45.24C258.578 45.24 257.764 45.4267 257.071 45.8C256.404 46.1733 255.831 46.6533 255.351 47.24C254.871 47.8267 254.498 48.4933 254.231 49.24C253.964 49.9867 253.791 50.7333 253.711 51.48H265.111C265.084 50.7067 264.938 49.9467 264.671 49.2C264.431 48.4533 264.084 47.7867 263.631 47.2C263.178 46.6133 262.604 46.1467 261.911 45.8C261.218 45.4267 260.418 45.24 259.511 45.24Z" fill="#808080"/>
<path d="M1.35193 42.9224V55.6956C1.35193 68.9081 19.2919 74.6574 20.0615 74.8966L20.3933 75.0002L20.7252 74.8966C21.4877 74.6574 39.4348 68.9081 39.4348 55.6956V42.9224H1.35193ZM20.3863 72.6005C17.9999 71.7685 3.60061 66.3299 3.60061 55.6813V45.1828H20.3863V72.6005Z" fill="white"/>
<path d="M40.7692 23.7605L39.4454 22L38.1217 23.7605L39.4384 25.5174L27.5666 34.9375L20.3934 25.5174L21.7137 23.7605L20.3864 22L19.0626 23.7605L20.3793 25.5174L13.2061 34.9375L1.33437 25.5174L2.64758 23.7605L1.32379 22L0 23.7605L1.32379 25.5245V40.9832H39.449V25.521L40.7692 23.7605ZM3.62894 38.6513V30.3203L13.6156 38.2228L20.3864 29.3347V38.6513H3.62894Z" fill="white"/>
</svg>
