<svg width="30" height="30" viewBox="0 0 30 30" fill="none" xmlns="http://www.w3.org/2000/svg">
<path d="M25.6677 16.0146H23.3477C23.5841 16.6621 23.7133 17.3608 23.7133 18.0891V26.8577C23.7133 27.1613 23.6605 27.4528 23.5643 27.7238H27.4C28.8327 27.7238 29.9984 26.5581 29.9984 25.1254V20.3453C29.9984 17.9574 28.0557 16.0146 25.6677 16.0146Z" fill="white"/>
<path d="M6.28507 18.0896C6.28507 17.3613 6.41427 16.6626 6.65075 16.0151H4.33067C1.94274 16.0151 0 17.9579 0 20.3458V25.126C0 26.5587 1.16561 27.7244 2.5984 27.7244H6.43407C6.33792 27.4532 6.28507 27.1618 6.28507 26.8582V18.0896Z" fill="white"/>
<path d="M17.6508 13.7588H12.3468C9.95885 13.7588 8.01611 15.7015 8.01611 18.0895V26.858C8.01611 27.3363 8.40389 27.7242 8.88225 27.7242H21.1154C21.5937 27.7242 21.9815 27.3364 21.9815 26.858V18.0895C21.9815 15.7015 20.0387 13.7588 17.6508 13.7588Z" fill="white"/>
<path d="M15.0011 2.27588C12.1293 2.27588 9.79297 4.61225 9.79297 7.48411C9.79297 9.43206 10.8681 11.1333 12.4559 12.0265C13.209 12.4502 14.0772 12.6923 15.0011 12.6923C15.925 12.6923 16.7933 12.4502 17.5464 12.0265C19.1342 11.1333 20.2093 9.432 20.2093 7.48411C20.2093 4.61231 17.8729 2.27588 15.0011 2.27588Z" fill="white"/>
<path d="M5.85206 7.13037C3.7043 7.13037 1.95703 8.87764 1.95703 11.0254C1.95703 13.1732 3.7043 14.9204 5.85206 14.9204C6.39686 14.9204 6.91565 14.8076 7.38692 14.6047C8.20173 14.2539 8.87357 13.6329 9.28929 12.8551C9.58109 12.3092 9.74709 11.6864 9.74709 11.0254C9.74709 8.8777 7.99982 7.13037 5.85206 7.13037Z" fill="white"/>
<path d="M24.145 7.13037C21.9973 7.13037 20.25 8.87764 20.25 11.0254C20.25 11.6865 20.416 12.3092 20.7078 12.8551C21.1235 13.633 21.7954 14.254 22.6102 14.6047C23.0814 14.8076 23.6002 14.9204 24.145 14.9204C26.2928 14.9204 28.0401 13.1732 28.0401 11.0254C28.0401 8.87764 26.2928 7.13037 24.145 7.13037Z" fill="white"/>
</svg>
